<svg height="512pt" viewBox="-107 0 512 512" width="512pt" xmlns="http://www.w3.org/2000/svg" xmlns:xlink="http://www.w3.org/1999/xlink"><linearGradient id="a" gradientUnits="userSpaceOnUse" x1="92.8757549428" x2="242.2091069428" y1="519.5424649428" y2="370.2091129428"><stop offset="0" stop-color="#b3e152"/><stop offset="1" stop-color="#f6e46f"/></linearGradient><path d="m213.332031 0h-128c-11.78125 0-21.332031 9.550781-21.332031 21.332031v64c0 11.78125 9.550781 21.335938 21.332031 21.335938h128c11.78125 0 21.335938-9.554688 21.335938-21.335938v-64c0-11.78125-9.554688-21.332031-21.335938-21.332031zm0 0" fill="#b3e152"/><path d="m106.667969 85.332031v-64c0-11.78125 9.550781-21.332031 21.332031-21.332031h-42.667969c-11.78125 0-21.332031 9.550781-21.332031 21.332031v64c0 11.78125 9.550781 21.335938 21.332031 21.335938h42.667969c-11.78125 0-21.332031-9.554688-21.332031-21.335938zm0 0" fill="#a0d927"/><path d="m256 64h-213.332031c-23.527344 0-42.667969 19.140625-42.667969 42.667969v362.664062c0 23.527344 19.140625 42.667969 42.667969 42.667969h213.332031c23.523438 0 42.667969-19.140625 42.667969-42.667969v-362.664062c0-23.527344-19.144531-42.667969-42.667969-42.667969zm0 0" fill="#ecf7d4"/><path d="m42.667969 426.667969v-362.667969c-23.527344 0-42.667969 19.140625-42.667969 42.667969v362.664062c0 23.527344 19.140625 42.667969 42.667969 42.667969h213.332031c23.523438 0 42.667969-19.140625 42.667969-42.667969h-213.335938c-23.523437 0-42.664062-19.140625-42.664062-42.664062zm0 0" fill="#e2f4be"/><path d="m256 384v64c0 11.78125-9.550781 21.332031-21.332031 21.332031h-192zm0 0" fill="url(#a)"/></svg>