<?xml version="1.0" encoding="iso-8859-1"?>
<svg version="1.1" id="Capa_1" xmlns="http://www.w3.org/2000/svg" xmlns:xlink="http://www.w3.org/1999/xlink" x="0px" y="0px"
	 viewBox="0 0 512 512" style="enable-background:new 0 0 512 512;" xml:space="preserve">
<path style="fill:#41434C;" d="M491.557,303.5H462v-94h29.557c11.29,0,20.443,8.765,20.443,20.055v53.89
	C512,294.735,502.848,303.5,491.557,303.5z"/>
<path style="fill:#353947;" d="M491.557,276.5H462v27h29.557c11.29,0,20.443-8.765,20.443-20.055V256.52
	C512,267.811,502.848,276.5,491.557,276.5z"/>
<path style="fill:#FFD2D1;" d="M465,354.494c0,13.258-10.748,24.006-24.006,24.006H24.006C10.748,378.5,0,367.752,0,354.494V157.506
	C0,144.248,10.748,133.5,24.006,133.5h416.988c13.258,0,24.006,10.748,24.006,24.006L465,354.494L465,354.494z"/>
<path style="fill:#FFC0C0;" d="M465,355c0-12.979-10.521-23.5-23.5-23.5h-418C10.521,331.5,0,342.021,0,355l0,0
	c0,12.979,10.521,23.5,23.5,23.5h418C454.479,378.5,465,367.979,465,355L465,355z"/>
<path style="fill:#FE6C6B;" d="M113,343.65c0,1.574-1.276,2.85-2.85,2.85h-73.3c-1.574,0-2.85-1.276-2.85-2.85v-174.3
	c0-1.574,1.276-2.85,2.85-2.85h73.3c1.574,0,2.85,1.276,2.85,2.85V343.65z"/>
<path style="fill:#FC5E5E;" d="M34,331.5v12.029c0,1.574,1.334,2.971,2.908,2.971h73.343c1.574,0,2.749-1.397,2.749-2.971V331.5H34z
	"/>
<path style="fill:#FE0000;" d="M60,344.86c0,0.906-0.734,1.64-1.64,1.64H35.64c-0.906,0-1.64-0.734-1.64-1.64V168.14
	c0-0.906,0.734-1.64,1.64-1.64h22.72c0.906,0,1.64,0.734,1.64,1.64V344.86z"/>
<path style="fill:#E20000;" d="M60,344.739V331.5H34v12.029c0,1.574,1.334,2.971,2.908,2.971h21.675
	C59.489,346.5,60,345.644,60,344.739z"/>
</svg>
